<?xml version="1.0" encoding="UTF-8" standalone="no"?>
<svg
   xmlns:dc="http://purl.org/dc/elements/1.1/"
   xmlns:cc="http://creativecommons.org/ns#"
   xmlns:rdf="http://www.w3.org/1999/02/22-rdf-syntax-ns#"
   xmlns:svg="http://www.w3.org/2000/svg"
   xmlns="http://www.w3.org/2000/svg"
   xmlns:sodipodi="http://sodipodi.sourceforge.net/DTD/sodipodi-0.dtd"
   xmlns:inkscape="http://www.inkscape.org/namespaces/inkscape"
   width="210mm"
   height="297mm"
   viewBox="0 0 210 297"
   version="1.1"
   id="svg130"
   inkscape:version="1.0.2 (e86c8708, 2021-01-15)"
   sodipodi:docname="github.svg">
  <defs
     id="defs124" />
  <sodipodi:namedview
     id="base"
     pagecolor="#ffffff"
     bordercolor="#666666"
     borderopacity="1.0"
     inkscape:pageopacity="0.0"
     inkscape:pageshadow="2"
     inkscape:zoom="0.35"
     inkscape:cx="400"
     inkscape:cy="560"
     inkscape:document-units="mm"
     inkscape:current-layer="layer1"
     inkscape:document-rotation="0"
     showgrid="false"
     inkscape:window-width="1252"
     inkscape:window-height="872"
     inkscape:window-x="0"
     inkscape:window-y="0"
     inkscape:window-maximized="0" />
  <metadata
     id="metadata127">
    <rdf:RDF>
      <cc:Work
         rdf:about="">
        <dc:format>image/svg+xml</dc:format>
        <dc:type
           rdf:resource="http://purl.org/dc/dcmitype/StillImage" />
        <dc:title></dc:title>
      </cc:Work>
    </rdf:RDF>
  </metadata>
  <g
     inkscape:label="Layer 1"
     inkscape:groupmode="layer"
     id="layer1">
    <g
       id="g168"
       transform="matrix(0.49343609,0,0,0.48020709,-22.37619,18.052164)">
      <path
         style="fill:#00ff00;stroke-width:1"
         d="M 255.968,5.329 C 114.624,5.329 0,120.401 0,262.353 c 0,113.536 73.344,209.856 175.104,243.872 12.8,2.368 17.472,-5.568 17.472,-12.384 0,-6.112 -0.224,-22.272 -0.352,-43.712 -71.2,15.52 -86.24,-34.464 -86.24,-34.464 -11.616,-29.696 -28.416,-37.6 -28.416,-37.6 -23.264,-15.936 1.728,-15.616 1.728,-15.616 25.696,1.824 39.2,26.496 39.2,26.496 22.848,39.264 59.936,27.936 74.528,21.344 2.304,-16.608 8.928,-27.936 16.256,-34.368 -56.832,-6.496 -116.608,-28.544 -116.608,-127.008 0,-28.064 9.984,-51.008 26.368,-68.992 -2.656,-6.496 -11.424,-32.64 2.496,-68 0,0 21.504,-6.912 70.4,26.336 20.416,-5.696 42.304,-8.544 64.096,-8.64 21.728,0.128 43.648,2.944 64.096,8.672 48.864,-33.248 70.336,-26.336 70.336,-26.336 13.952,35.392 5.184,61.504 2.56,68 16.416,17.984 26.304,40.928 26.304,68.992 0,98.72 -59.84,120.448 -116.864,126.816 9.184,7.936 17.376,23.616 17.376,47.584 0,34.368 -0.32,62.08 -0.32,70.496 0,6.88 4.608,14.88 17.6,12.352 C 438.72,472.145 512,375.857 512,262.353 512,120.401 397.376,5.329 255.968,5.329 Z"
         id="path363" />
      <g
         id="g365"
         style="fill:#00ff00">
</g>
      <g
         id="g367"
         style="fill:#00ff00">
</g>
      <g
         id="g369"
         style="fill:#00ff00">
</g>
      <g
         id="g371"
         style="fill:#00ff00">
</g>
      <g
         id="g373"
         style="fill:#00ff00">
</g>
      <g
         id="g375"
         style="fill:#00ff00">
</g>
      <g
         id="g377"
         style="fill:#00ff00">
</g>
      <g
         id="g379"
         style="fill:#00ff00">
</g>
      <g
         id="g381"
         style="fill:#00ff00">
</g>
      <g
         id="g383"
         style="fill:#00ff00">
</g>
      <g
         id="g385"
         style="fill:#00ff00">
</g>
      <g
         id="g387"
         style="fill:#00ff00">
</g>
      <g
         id="g389"
         style="fill:#00ff00">
</g>
      <g
         id="g391"
         style="fill:#00ff00">
</g>
      <g
         id="g393"
         style="fill:#00ff00">
</g>
    </g>
  </g>
</svg>
