<?xml version="1.0" encoding="UTF-8" standalone="no"?>
<svg
   xmlns:dc="http://purl.org/dc/elements/1.1/"
   xmlns:cc="http://creativecommons.org/ns#"
   xmlns:rdf="http://www.w3.org/1999/02/22-rdf-syntax-ns#"
   xmlns:svg="http://www.w3.org/2000/svg"
   xmlns="http://www.w3.org/2000/svg"
   xmlns:sodipodi="http://sodipodi.sourceforge.net/DTD/sodipodi-0.dtd"
   xmlns:inkscape="http://www.inkscape.org/namespaces/inkscape"
   width="210mm"
   height="297mm"
   viewBox="0 0 210 297"
   version="1.1"
   id="svg8"
   sodipodi:docname="linkedin.svg"
   inkscape:version="1.0.2 (e86c8708, 2021-01-15)">
  <defs
     id="defs2" />
  <sodipodi:namedview
     id="base"
     pagecolor="#ffffff"
     bordercolor="#666666"
     borderopacity="1.0"
     inkscape:pageopacity="0.0"
     inkscape:pageshadow="2"
     inkscape:zoom="0.35"
     inkscape:cx="400"
     inkscape:cy="560"
     inkscape:document-units="mm"
     inkscape:current-layer="layer1"
     inkscape:document-rotation="0"
     showgrid="false"
     inkscape:window-width="1252"
     inkscape:window-height="872"
     inkscape:window-x="0"
     inkscape:window-y="0"
     inkscape:window-maximized="0" />
  <metadata
     id="metadata5">
    <rdf:RDF>
      <cc:Work
         rdf:about="">
        <dc:format>image/svg+xml</dc:format>
        <dc:type
           rdf:resource="http://purl.org/dc/dcmitype/StillImage" />
      </cc:Work>
    </rdf:RDF>
  </metadata>
  <g
     inkscape:label="Layer 1"
     inkscape:groupmode="layer"
     id="layer1">
    <g
       id="g46"
       transform="matrix(0.65047526,0,0,0.62755752,-18.785417,14.915589)">
      <path
         style="fill:#00ff00;stroke-width:1"
         d="M 347.445,0 H 34.555 C 15.471,0 0,15.471 0,34.555 V 347.444 C 0,366.529 15.471,382 34.555,382 H 347.444 C 366.529,382 382,366.529 382,347.444 V 34.555 C 382,15.471 366.529,0 347.445,0 Z M 118.207,329.844 c 0,5.554 -4.502,10.056 -10.056,10.056 H 65.345 c -5.554001,0 -10.056001,-4.502 -10.056001,-10.056 V 150.403 c 0,-5.554 4.502,-10.056 10.056001,-10.056 h 42.806 c 5.554,0 10.056,4.502 10.056,10.056 z M 86.748002,123.432 c -22.459003,0 -40.666001,-18.207 -40.666001,-40.666 0,-22.459 18.206998,-40.666 40.666001,-40.666 22.458998,0 40.665998,18.207 40.665998,40.666 0,22.459 -18.206,40.666 -40.665998,40.666 z M 341.91,330.654 c 0,5.106 -4.14,9.246 -9.246,9.246 H 286.73 c -5.106,0 -9.246,-4.14 -9.246,-9.246 v -84.168 c 0,-12.556 3.683,-55.021 -32.813,-55.021 -28.309,0 -34.051,29.066 -35.204,42.11 v 97.079 c 0,5.106 -4.139,9.246 -9.246,9.246 h -44.426 c -5.106,0 -9.246,-4.14 -9.246,-9.246 V 149.593 c 0,-5.106 4.14,-9.246 9.246,-9.246 h 44.426 c 5.106,0 9.246,4.14 9.246,9.246 v 15.655 c 10.497,-15.753 26.097,-27.912 59.312,-27.912 73.552,0 73.131,68.716 73.131,106.472 z"
         id="path479" />
      <g
         id="g481"
         style="fill:#00ff00" />
      <g
         id="g483"
         style="fill:#00ff00" />
      <g
         id="g485"
         style="fill:#00ff00" />
      <g
         id="g487"
         style="fill:#00ff00" />
      <g
         id="g489"
         style="fill:#00ff00" />
      <g
         id="g491"
         style="fill:#00ff00" />
      <g
         id="g493"
         style="fill:#00ff00" />
      <g
         id="g495"
         style="fill:#00ff00" />
      <g
         id="g497"
         style="fill:#00ff00" />
      <g
         id="g499"
         style="fill:#00ff00" />
      <g
         id="g501"
         style="fill:#00ff00" />
      <g
         id="g503"
         style="fill:#00ff00" />
      <g
         id="g505"
         style="fill:#00ff00" />
      <g
         id="g507"
         style="fill:#00ff00" />
      <g
         id="g509"
         style="fill:#00ff00" />
    </g>
  </g>
</svg>
