<?xml version="1.0" encoding="UTF-8" standalone="no"?>
<svg
   xmlns:dc="http://purl.org/dc/elements/1.1/"
   xmlns:cc="http://creativecommons.org/ns#"
   xmlns:rdf="http://www.w3.org/1999/02/22-rdf-syntax-ns#"
   xmlns:svg="http://www.w3.org/2000/svg"
   xmlns="http://www.w3.org/2000/svg"
   xmlns:sodipodi="http://sodipodi.sourceforge.net/DTD/sodipodi-0.dtd"
   xmlns:inkscape="http://www.inkscape.org/namespaces/inkscape"
   width="210mm"
   height="297mm"
   viewBox="0 0 210 297"
   version="1.1"
   id="svg183"
   inkscape:version="1.0.2 (e86c8708, 2021-01-15)"
   sodipodi:docname="medium.svg">
  <defs
     id="defs177" />
  <sodipodi:namedview
     id="base"
     pagecolor="#ffffff"
     bordercolor="#666666"
     borderopacity="1.0"
     inkscape:pageopacity="0.0"
     inkscape:pageshadow="2"
     inkscape:zoom="0.35"
     inkscape:cx="400"
     inkscape:cy="560"
     inkscape:document-units="mm"
     inkscape:current-layer="layer1"
     inkscape:document-rotation="0"
     showgrid="false"
     inkscape:window-width="1252"
     inkscape:window-height="872"
     inkscape:window-x="0"
     inkscape:window-y="0"
     inkscape:window-maximized="0" />
  <metadata
     id="metadata180">
    <rdf:RDF>
      <cc:Work
         rdf:about="">
        <dc:format>image/svg+xml</dc:format>
        <dc:type
           rdf:resource="http://purl.org/dc/dcmitype/StillImage" />
        <dc:title></dc:title>
      </cc:Work>
    </rdf:RDF>
  </metadata>
  <g
     inkscape:label="Layer 1"
     inkscape:groupmode="layer"
     id="layer1">
    <g
       id="g187"
       transform="matrix(0.51320767,0,0,0.46449073,-26.303784,33.414777)"
       style="fill:#00ff00">
	<path
   d="M 31,31 V 481 H 481 V 31 Z m 373.9,106.6 -24.1,23.1 c -2.1,1.6 -3.1,4.2 -2.7,6.7 v 170.1 c -0.4,2.6 0.6,5.2 2.7,6.7 l 23.6,23.1 v 5.1 H 285.8 v -4.9 l 24.4,-23.7 c 2.4,-2.4 2.4,-3.1 2.4,-6.7 V 199.5 l -67.9,172.4 h -9.1 L 156.5,199.5 V 315 c -0.7,4.8 1,9.7 4.4,13.3 l 31.7,38.5 v 5.1 h -90.2 v -5.1 l 31.7,-38.5 c 3.4,-3.5 4.9,-8.4 4.1,-13.3 V 181.5 c 0.4,-3.7 -1,-7.3 -3.8,-9.8 l -28.2,-34.1 v -5.1 H 194 l 67.7,148.7 59.6,-148.6 h 83.6 z"
   id="path185"
   style="fill:#00ff00" />

</g>
  </g>
</svg>
