<?xml version="1.0" encoding="UTF-8" standalone="no"?>
<svg
   xmlns:dc="http://purl.org/dc/elements/1.1/"
   xmlns:cc="http://creativecommons.org/ns#"
   xmlns:rdf="http://www.w3.org/1999/02/22-rdf-syntax-ns#"
   xmlns:svg="http://www.w3.org/2000/svg"
   xmlns="http://www.w3.org/2000/svg"
   xmlns:sodipodi="http://sodipodi.sourceforge.net/DTD/sodipodi-0.dtd"
   xmlns:inkscape="http://www.inkscape.org/namespaces/inkscape"
   version="1.1"
   id="Layer_1"
   x="0px"
   y="0px"
   viewBox="0 0 512 512"
   style="enable-background:new 0 0 512 512;"
   xml:space="preserve"
   sodipodi:docname="orcid.svg"
   inkscape:version="1.0.2 (e86c8708, 2021-01-15)"><metadata
   id="metadata19"><rdf:RDF><cc:Work
       rdf:about=""><dc:format>image/svg+xml</dc:format><dc:type
         rdf:resource="http://purl.org/dc/dcmitype/StillImage" /></cc:Work></rdf:RDF></metadata><defs
   id="defs17" /><sodipodi:namedview
   pagecolor="#ffffff"
   bordercolor="#666666"
   borderopacity="1"
   objecttolerance="10"
   gridtolerance="10"
   guidetolerance="10"
   inkscape:pageopacity="0"
   inkscape:pageshadow="2"
   inkscape:window-width="1440"
   inkscape:window-height="872"
   id="namedview15"
   showgrid="false"
   inkscape:zoom="1.3515625"
   inkscape:cx="256"
   inkscape:cy="256"
   inkscape:window-x="0"
   inkscape:window-y="0"
   inkscape:window-maximized="1"
   inkscape:current-layer="Layer_1" />
<g
   id="g12"
   style="fill:#00ff00">
	<path
   d="M291.2,194.5h-41.7V334h43.1c61.3,0,75.4-46.6,75.4-69.8C368,226.5,343.9,194.5,291.2,194.5z M256,31   C131.7,31,31,131.7,31,256s100.7,225,225,225s225-100.7,225-225S380.3,31,256,31z M182.7,358.3h-27.1V170h27.1V358.3z M169.2,148.6   c-9.8,0-17.8-7.9-17.8-17.8s7.9-17.8,17.8-17.8c9.8,0,17.8,7.9,17.8,17.8v0C186.9,140.6,179,148.6,169.2,148.6L169.2,148.6z    M295.9,358.5h-73.5V170h73.1c69.6,0,100.2,49.7,100.2,94.2C395.7,312.6,358,358.5,295.9,358.5z"
   id="path10"
   style="fill:#00ff00" />
</g>
</svg>
