<?xml version="1.0" encoding="UTF-8" standalone="no"?>
<svg
   xmlns:dc="http://purl.org/dc/elements/1.1/"
   xmlns:cc="http://creativecommons.org/ns#"
   xmlns:rdf="http://www.w3.org/1999/02/22-rdf-syntax-ns#"
   xmlns:svg="http://www.w3.org/2000/svg"
   xmlns="http://www.w3.org/2000/svg"
   xmlns:sodipodi="http://sodipodi.sourceforge.net/DTD/sodipodi-0.dtd"
   xmlns:inkscape="http://www.inkscape.org/namespaces/inkscape"
   version="1.1"
   id="Capa_1"
   x="0px"
   y="0px"
   width="284.936px"
   height="284.936px"
   viewBox="0 0 284.936 284.936"
   style="enable-background:new 0 0 284.936 284.936;"
   xml:space="preserve"
   sodipodi:docname="right-arrow.svg"
   inkscape:version="1.0.2 (e86c8708, 2021-01-15)"><metadata
   id="metadata164"><rdf:RDF><cc:Work
       rdf:about=""><dc:format>image/svg+xml</dc:format><dc:type
         rdf:resource="http://purl.org/dc/dcmitype/StillImage" /></cc:Work></rdf:RDF></metadata><defs
   id="defs162" /><sodipodi:namedview
   pagecolor="#ffffff"
   bordercolor="#666666"
   borderopacity="1"
   objecttolerance="10"
   gridtolerance="10"
   guidetolerance="10"
   inkscape:pageopacity="0"
   inkscape:pageshadow="2"
   inkscape:window-width="1440"
   inkscape:window-height="872"
   id="namedview160"
   showgrid="false"
   inkscape:zoom="1.4200923"
   inkscape:cx="120.17013"
   inkscape:cy="121.01609"
   inkscape:window-x="0"
   inkscape:window-y="0"
   inkscape:window-maximized="1"
   inkscape:current-layer="Capa_1"
   inkscape:document-rotation="0" />
<g
   id="g127"
   style="fill:#00ff00"
   transform="matrix(0.83148468,0,0,0.8121766,24.712221,28.871362)">
	<g
   id="g125"
   style="fill:#00ff00">
		<path
   d="M 277.515,135.9 144.464,2.857 C 142.565,0.955 140.375,0 137.9,0 c -2.472,0 -4.659,0.955 -6.562,2.857 l -14.277,14.275 c -1.903,1.903 -2.853,4.089 -2.853,6.567 0,2.478 0.95,4.664 2.853,6.567 L 229.268,142.47 117.062,254.677 c -1.903,1.903 -2.853,4.093 -2.853,6.564 0,2.477 0.95,4.667 2.853,6.57 l 14.277,14.271 c 1.902,1.905 4.089,2.854 6.562,2.854 2.478,0 4.665,-0.951 6.563,-2.854 L 277.515,149.038 c 1.902,-1.902 2.851,-4.093 2.851,-6.567 0,-2.474 -0.949,-4.664 -2.851,-6.571 z"
   id="path121"
   style="fill:#00ff00" />
		<path
   d="m 170.732,142.471 c 0,-2.474 -0.947,-4.665 -2.857,-6.571 L 34.833,2.857 C 32.931,0.955 30.741,0 28.267,0 25.793,0 23.602,0.955 21.7,2.857 L 7.426,17.133 C 5.52,19.036 4.57,21.222 4.57,23.7 c 0,2.478 0.95,4.664 2.856,6.567 L 119.63,142.471 7.426,254.677 c -1.906,1.903 -2.856,4.093 -2.856,6.564 0,2.477 0.95,4.667 2.856,6.57 l 14.273,14.271 c 1.903,1.905 4.093,2.854 6.567,2.854 2.474,0 4.664,-0.951 6.567,-2.854 L 167.875,149.038 c 1.91,-1.902 2.857,-4.093 2.857,-6.567 z"
   id="path123"
   style="fill:#00ff00" />
	</g>
</g>
<g
   id="g129"
   style="fill:#00ff00">
</g>
<g
   id="g131"
   style="fill:#00ff00">
</g>
<g
   id="g133"
   style="fill:#00ff00">
</g>
<g
   id="g135"
   style="fill:#00ff00">
</g>
<g
   id="g137"
   style="fill:#00ff00">
</g>
<g
   id="g139"
   style="fill:#00ff00">
</g>
<g
   id="g141"
   style="fill:#00ff00">
</g>
<g
   id="g143"
   style="fill:#00ff00">
</g>
<g
   id="g145"
   style="fill:#00ff00">
</g>
<g
   id="g147"
   style="fill:#00ff00">
</g>
<g
   id="g149"
   style="fill:#00ff00">
</g>
<g
   id="g151"
   style="fill:#00ff00">
</g>
<g
   id="g153"
   style="fill:#00ff00">
</g>
<g
   id="g155"
   style="fill:#00ff00">
</g>
<g
   id="g157"
   style="fill:#00ff00">
</g>
</svg>
