<?xml version="1.0" encoding="UTF-8" standalone="no"?>
<svg
   xmlns:dc="http://purl.org/dc/elements/1.1/"
   xmlns:cc="http://creativecommons.org/ns#"
   xmlns:rdf="http://www.w3.org/1999/02/22-rdf-syntax-ns#"
   xmlns:svg="http://www.w3.org/2000/svg"
   xmlns="http://www.w3.org/2000/svg"
   xmlns:sodipodi="http://sodipodi.sourceforge.net/DTD/sodipodi-0.dtd"
   xmlns:inkscape="http://www.inkscape.org/namespaces/inkscape"
   width="210mm"
   height="297mm"
   viewBox="0 0 210 297"
   version="1.1"
   id="svg405"
   inkscape:version="1.0.2 (e86c8708, 2021-01-15)"
   sodipodi:docname="twitter.svg">
  <defs
     id="defs399" />
  <sodipodi:namedview
     id="base"
     pagecolor="#ffffff"
     bordercolor="#666666"
     borderopacity="1.0"
     inkscape:pageopacity="0.0"
     inkscape:pageshadow="2"
     inkscape:zoom="0.35"
     inkscape:cx="400"
     inkscape:cy="560"
     inkscape:document-units="mm"
     inkscape:current-layer="layer1"
     inkscape:document-rotation="0"
     showgrid="false"
     inkscape:window-width="1252"
     inkscape:window-height="872"
     inkscape:window-x="0"
     inkscape:window-y="0"
     inkscape:window-maximized="0" />
  <metadata
     id="metadata402">
    <rdf:RDF>
      <cc:Work
         rdf:about="">
        <dc:format>image/svg+xml</dc:format>
        <dc:type
           rdf:resource="http://purl.org/dc/dcmitype/StillImage" />
        <dc:title></dc:title>
      </cc:Work>
    </rdf:RDF>
  </metadata>
  <g
     inkscape:label="Layer 1"
     inkscape:groupmode="layer"
     id="layer1">
    <g
       id="g443"
       transform="matrix(0.48310081,0,0,0.47174335,-14.060715,22.108701)">
      <path
         style="fill:#00ff00"
         d="m 512,97.248 c -19.04,8.352 -39.328,13.888 -60.48,16.576 21.76,-12.992 38.368,-33.408 46.176,-58.016 -20.288,12.096 -42.688,20.64 -66.56,25.408 C 411.872,60.704 384.416,48 354.464,48 296.352,48 249.568,95.168 249.568,152.992 c 0,8.32 0.704,16.32 2.432,23.936 C 164.736,172.672 87.52,130.848 35.648,67.136 26.592,82.848 21.28,100.832 21.28,120.192 c 0,36.352 18.72,68.576 46.624,87.232 -16.864,-0.32 -33.408,-5.216 -47.424,-12.928 0,0.32 0,0.736 0,1.152 0,51.008 36.384,93.376 84.096,103.136 -8.544,2.336 -17.856,3.456 -27.52,3.456 -6.72,0 -13.504,-0.384 -19.872,-1.792 13.6,41.568 52.192,72.128 98.08,73.12 -35.712,27.936 -81.056,44.768 -130.144,44.768 -8.608,0 -16.864,-0.384 -25.12,-1.44 C 46.496,446.88 101.6,464 161.024,464 c 193.152,0 298.752,-160 298.752,-298.688 0,-4.64 -0.16,-9.12 -0.384,-13.568 C 480.224,136.96 497.728,118.496 512,97.248 Z"
         id="path235" />
      <g
         id="g237"
         style="fill:#00ff00">
</g>
      <g
         id="g239"
         style="fill:#00ff00">
</g>
      <g
         id="g241"
         style="fill:#00ff00">
</g>
      <g
         id="g243"
         style="fill:#00ff00">
</g>
      <g
         id="g245"
         style="fill:#00ff00">
</g>
      <g
         id="g247"
         style="fill:#00ff00">
</g>
      <g
         id="g249"
         style="fill:#00ff00">
</g>
      <g
         id="g251"
         style="fill:#00ff00">
</g>
      <g
         id="g253"
         style="fill:#00ff00">
</g>
      <g
         id="g255"
         style="fill:#00ff00">
</g>
      <g
         id="g257"
         style="fill:#00ff00">
</g>
      <g
         id="g259"
         style="fill:#00ff00">
</g>
      <g
         id="g261"
         style="fill:#00ff00">
</g>
      <g
         id="g263"
         style="fill:#00ff00">
</g>
      <g
         id="g265"
         style="fill:#00ff00">
</g>
    </g>
  </g>
</svg>
